<svg width="36" height="37" viewBox="0 0 36 37" fill="none" xmlns="http://www.w3.org/2000/svg">
<g filter="url(#filter0_d_51_187)">
<path d="M31.1396 10.268V10.2674C31.1355 8.04016 30.248 5.90557 28.6717 4.33214C27.0954 2.7587 24.9591 1.875 22.7319 1.875H13.2826C11.0528 1.875 8.91428 2.7608 7.33754 4.33754C5.7608 5.91428 4.875 8.0528 4.875 10.2826V19.7174C4.875 21.9472 5.7608 24.0857 7.33754 25.6625C8.91428 27.2392 11.0528 28.125 13.2826 28.125H22.7319C24.9618 28.125 27.1003 27.2392 28.6771 25.6625C30.2538 24.0857 31.1396 21.9472 31.1396 19.7174V10.268ZM29.3162 19.717C29.3143 21.4627 28.62 23.1365 27.3855 24.3709C26.1511 25.6054 24.4773 26.2997 22.7316 26.3015H13.283C11.5373 26.2997 9.8635 25.6054 8.62905 24.3709C7.39465 23.1365 6.70034 21.4629 6.69845 19.7172V10.2684C6.70221 8.52325 7.39714 6.85062 8.63118 5.61658C9.86522 4.38254 11.5379 3.6876 13.283 3.68385H22.7316C24.4767 3.6876 26.1494 4.38254 27.3834 5.61658C28.6175 6.85071 29.3125 8.5235 29.3162 10.2688V19.717Z" fill="black" stroke="black" stroke-width="0.75"/>
<path d="M18.9154 9.15076V8.77576H18.5404H17.4742H17.0992V9.15076V14.0846H12.1654H11.7904V14.4596V15.5258V15.9008H12.1654H17.0992V20.8346V21.2096H17.4742H18.5404H18.9154V20.8346V15.9008H23.8493H24.2243V15.5258V14.4596V14.0846H23.8493H18.9154V9.15076Z" fill="black" stroke="black" stroke-width="0.75"/>
</g>
<defs>
<filter id="filter0_d_51_187" x="-1" y="0" width="38" height="38" filterUnits="userSpaceOnUse" color-interpolation-filters="sRGB">
<feFlood flood-opacity="0" result="BackgroundImageFix"/>
<feColorMatrix in="SourceAlpha" type="matrix" values="0 0 0 0 0 0 0 0 0 0 0 0 0 0 0 0 0 0 127 0" result="hardAlpha"/>
<feOffset dy="4"/>
<feGaussianBlur stdDeviation="2"/>
<feComposite in2="hardAlpha" operator="out"/>
<feColorMatrix type="matrix" values="0 0 0 0 0 0 0 0 0 0 0 0 0 0 0 0 0 0 0.25 0"/>
<feBlend mode="normal" in2="BackgroundImageFix" result="effect1_dropShadow_51_187"/>
<feBlend mode="normal" in="SourceGraphic" in2="effect1_dropShadow_51_187" result="shape"/>
</filter>
</defs>
</svg>
